<svg width="32" height="32" viewBox="0 0 32 32" fill="none" xmlns="http://www.w3.org/2000/svg">
<path fill-rule="evenodd" clip-rule="evenodd" d="M14.9523 17V31C14.9523 31.5523 15.4 32 15.9523 32C16.5046 32 16.9523 31.5523 16.9523 31V17H30.9043C31.4566 17 31.9043 16.5523 31.9043 16C31.9043 15.4477 31.4566 15 30.9043 15L16.9523 15V1C16.9523 0.447715 16.5046 0 15.9523 0C15.4 0 14.9523 0.447715 14.9523 1V15L1 15C0.447715 15 0 15.4477 0 16C0 16.5523 0.447715 17 1 17H14.9523Z" fill="#111111"/>
</svg>
